<svg width="25" height="25" viewBox="0 0 25 25" fill="none" xmlns="http://www.w3.org/2000/svg">
<path fill-rule="evenodd" clip-rule="evenodd" d="M12.1494 23.3589C6.07422 23.3589 1.14935 18.434 1.14935 12.3589C1.14935 6.28375 6.07422 1.35889 12.1494 1.35889C18.2245 1.35889 23.1494 6.28375 23.1494 12.3589C23.1494 18.434 18.2245 23.3589 12.1494 23.3589ZM19.5488 17.4835C20.558 16.0292 21.1494 14.2631 21.1494 12.3589C21.1494 7.38832 17.1199 3.35889 12.1494 3.35889C7.17879 3.35889 3.14935 7.38832 3.14935 12.3589C3.14935 14.2631 3.74074 16.0292 4.74986 17.4835C5.87531 15.997 8.51996 15.3589 12.1494 15.3589C15.7787 15.3589 18.4234 15.997 19.5488 17.4835ZM18.114 19.0987C17.8214 18.0462 15.7187 17.3589 12.1494 17.3589C8.57997 17.3589 6.47736 18.0462 6.18467 19.0987C7.77265 20.5051 9.86129 21.3589 12.1494 21.3589C14.4374 21.3589 16.5261 20.5051 18.114 19.0987ZM12.1494 15.3589C9.91022 15.3589 8.14935 13.7863 8.14935 10.3589C8.14935 8.11465 9.72845 6.35889 12.1494 6.35889C14.5635 6.35889 16.1494 8.28046 16.1494 10.5589C16.1494 13.8385 14.3674 15.3589 12.1494 15.3589ZM10.1494 10.3589C10.1494 12.6281 10.9676 13.3589 12.1494 13.3589C13.3271 13.3589 14.1494 12.6573 14.1494 10.5589C14.1494 9.3093 13.365 8.35889 12.1494 8.35889C10.8831 8.35889 10.1494 9.17471 10.1494 10.3589Z" fill="white"/>
</svg>
