<svg width="18" height="23" viewBox="0 0 18 23" fill="none" xmlns="http://www.w3.org/2000/svg">
<path fill-rule="evenodd" clip-rule="evenodd" d="M9 22.8276L9.65773 22.2533C15.1887 17.4237 18 13.2068 18 9.5C18 4.25066 13.9029 0.5 9 0.5C4.09705 0.5 0 4.25066 0 9.5C0 13.2068 2.81131 17.4237 8.34227 22.2533L9 22.8276ZM9 20.1634C4.30661 15.9335 2 12.3492 2 9.5C2 5.3966 5.16411 2.5 9 2.5C12.8359 2.5 16 5.3966 16 9.5C16 12.3492 13.6934 15.9335 9 20.1634ZM9 4.5C11.7614 4.5 14 6.73858 14 9.5C14 12.2614 11.7614 14.5 9 14.5C6.23858 14.5 4 12.2614 4 9.5C4 6.73858 6.23858 4.5 9 4.5ZM6 9.5C6 7.84315 7.34315 6.5 9 6.5C10.6569 6.5 12 7.84315 12 9.5C12 11.1569 10.6569 12.5 9 12.5C7.34315 12.5 6 11.1569 6 9.5Z" fill="#C7C9D8"/>
</svg>
